<?xml version="1.0" standalone="no"?><!DOCTYPE svg PUBLIC "-//W3C//DTD SVG 1.1//EN" "http://www.w3.org/Graphics/SVG/1.1/DTD/svg11.dtd"><svg t="1719836699763" class="icon" viewBox="0 0 1024 1024" version="1.1" xmlns="http://www.w3.org/2000/svg" p-id="4223" xmlns:xlink="http://www.w3.org/1999/xlink" width="200" height="200"><path d="M721.524 276.752c0 24.663 19.995 44.654 44.655 44.654 24.663 0 44.654-19.99 44.654-44.654 0-24.66-19.991-44.655-44.654-44.655-24.66 0-44.655 19.995-44.655 44.655z m0 0M804.471 518.075a55.121 55.121 0 0 0 82.68 47.74 55.117 55.117 0 0 0 27.556-47.74 55.112 55.112 0 0 0-27.556-47.739 55.107 55.107 0 0 0-55.12 0 55.117 55.117 0 0 0-27.56 47.739z m0 0M703.384 760.607a64.887 64.887 0 0 0 129.771 0 64.882 64.882 0 0 0-32.443-56.192 64.868 64.868 0 0 0-64.885 0 64.882 64.882 0 0 0-32.443 56.192z m0 0M450.795 857.594a75.17 75.17 0 0 0 37.582 65.098 75.156 75.156 0 0 0 75.171 0 75.16 75.16 0 0 0 37.578-65.098 75.16 75.16 0 0 0-37.578-65.102 75.156 75.156 0 0 0-75.171 0 75.172 75.172 0 0 0-37.582 65.102z m0 0M203.113 756.792a83.724 83.724 0 0 0 125.582 72.507 83.724 83.724 0 0 0 41.862-72.507c0-46.24-37.485-83.721-83.725-83.721-46.234 0-83.719 37.482-83.719 83.721z m0 0M438.82 183.251c0 48.938 39.675 88.61 88.614 88.61 48.938 0 88.61-39.672 88.61-88.61a88.616 88.616 0 0 0-44.306-76.744 88.614 88.614 0 0 0-132.918 76.744z m0 0M198.222 278.842a88.606 88.606 0 0 0 44.306 76.74 88.61 88.61 0 0 0 88.614 0 88.608 88.608 0 0 0 44.306-76.74c0-48.938-39.672-88.61-88.615-88.61-48.939 0-88.611 39.672-88.611 88.61z m0 0M108.452 515.287c0 46.633 37.803 84.434 84.434 84.434 46.628 0 84.43-37.802 84.43-84.434s-37.803-84.433-84.43-84.433c-46.631 0-84.434 37.801-84.434 84.433z m0 0" p-id="4224" fill="#ffffff"></path></svg>